<?xml version="1.0" encoding="UTF-8"?>
<svg width="28px" height="28px" viewBox="0 0 28 28" version="1.1" xmlns="http://www.w3.org/2000/svg" xmlns:xlink="http://www.w3.org/1999/xlink">
    <!-- Generator: Sketch 52.2 (67145) - http://www.bohemiancoding.com/sketch -->
    <title>button_rightarrow copy</title>
    <desc>Created with Sketch.</desc>
    <g id="页面-1" stroke="none" stroke-width="1" fill="none" fill-rule="evenodd">
        <g id="预订价格展开-非编辑状态" transform="translate(-1326.000000, -246.000000)" fill="#B4B3B5">
            <g id="编组-7" transform="translate(998.000000, 245.000000)">
                <g id="button_rightarrow-copy-4" transform="translate(342.000000, 15.000000) rotate(-270.000000) translate(-342.000000, -15.000000) translate(328.000000, 1.000000)">
                    <g id="button_rightarrow-copy" transform="translate(15.300000, 13.800000) rotate(-180.000000) translate(-15.300000, -13.800000) translate(10.300000, 4.800000)">
                        <path d="M0.26694951,4.59334475 L10.1839256,4.52852792 C10.6609137,4.52541035 11.0501162,4.90955829 11.0532338,5.38654637 C11.0532584,5.39030957 11.0532584,5.39407289 11.0532338,5.39783609 L11.0532338,5.39783609 C11.0500632,5.88293953 10.6575908,6.27541191 10.1724874,6.27858253 L0.255511244,6.34339936 C-0.221476833,6.34651693 -0.610679359,5.96236898 -0.613796928,5.48538091 C-0.613821524,5.48161771 -0.613821524,5.47785439 -0.613796928,5.47409119 L-0.613796928,5.47409119 C-0.610626317,4.98898774 -0.218153937,4.59651536 0.26694951,4.59334475 Z" id="矩形" transform="translate(5.219718, 5.435964) rotate(-45.000000) translate(-5.219718, -5.435964) "></path>
                        <path d="M0.26871746,11.8461073 L10.1821577,11.7811826 C10.6601095,11.7780524 11.0501035,12.1629714 11.0532337,12.6409232 C11.0532584,12.644694 11.0532584,12.648465 11.0532338,12.6522358 L11.0532338,12.6522358 C11.0500632,13.1383194 10.656803,13.53159 10.1707194,13.5347734 L0.257279195,13.5996981 C-0.220672601,13.6028283 -0.610666599,13.2179093 -0.613796779,12.7399575 C-0.613821475,12.7361867 -0.613821524,12.7324158 -0.613796928,12.728645 L-0.613796928,12.728645 C-0.610626317,12.2425613 -0.217366118,11.8492907 0.26871746,11.8461073 Z" id="矩形-copy" transform="translate(5.219718, 12.690440) scale(1, -1) rotate(-45.000000) translate(-5.219718, -12.690440) "></path>
                    </g>
                </g>
            </g>
        </g>
    </g>
</svg>